<svg xmlns="http://www.w3.org/2000/svg" viewBox="0 0 295.64 295.64"><defs><style>.cls-1{fill:none;stroke:#fff;stroke-miterlimit:10;stroke-width:10px;}.cls-2{fill:#fff;}</style></defs><title>rejectButton</title><g id="Layer_2" data-name="Layer 2"><g id="Layer_1-2" data-name="Layer 1"><circle class="cls-1" cx="147.82" cy="147.82" r="142.82"/><path class="cls-2" d="M174.56,147.52l44.05-44.05a13.85,13.85,0,0,0,0-19.59l-9.79-9.79a13.86,13.86,0,0,0-19.58,0l-44.05,44.06L101.13,74.09a13.86,13.86,0,0,0-19.58,0l-9.79,9.79a13.85,13.85,0,0,0,0,19.59l44.05,44.05-44,44a13.84,13.84,0,0,0,0,19.58l9.79,9.8a13.86,13.86,0,0,0,19.58,0l44.06-44.06L189.24,221a13.86,13.86,0,0,0,19.58,0l9.79-9.8a13.84,13.84,0,0,0,0-19.58Z"/></g></g></svg>